<svg width="24" height="24" viewBox="0 0 24 24" fill="none" xmlns="http://www.w3.org/2000/svg">
<path d="M8.7595 22.27H8.8895C13.3295 22.27 15.4695 20.52 15.8395 16.6C15.8795 16.19 15.5795 15.82 15.1595 15.78C14.7595 15.74 14.3795 16.05 14.3395 16.46C14.0495 19.6 12.5695 20.77 8.8795 20.77H8.7495C4.6795 20.77 3.2395 19.33 3.2395 15.26V8.73998C3.2395 4.66998 4.6795 3.22998 8.7495 3.22998H8.8795C12.5895 3.22998 14.0695 4.41998 14.3395 7.61998C14.3895 8.02998 14.7395 8.33998 15.1595 8.29998C15.5795 8.26998 15.8795 7.89998 15.8495 7.48998C15.5095 3.50998 13.3595 1.72998 8.8895 1.72998H8.7595C3.8495 1.72998 1.7495 3.82998 1.7495 8.73998V15.26C1.7495 20.17 3.8495 22.27 8.7595 22.27Z" fill="#292D32"/>
<path d="M9.00086 12.75H20.3809C20.7909 12.75 21.1309 12.41 21.1309 12C21.1309 11.59 20.7909 11.25 20.3809 11.25H9.00086C8.59086 11.25 8.25086 11.59 8.25086 12C8.25086 12.41 8.59086 12.75 9.00086 12.75Z" fill="#292D32"/>
<path d="M18.1505 16.1001C18.3405 16.1001 18.5305 16.0301 18.6805 15.8801L22.0305 12.5301C22.3205 12.2401 22.3205 11.7601 22.0305 11.4701L18.6805 8.12009C18.3905 7.83009 17.9105 7.83009 17.6205 8.12009C17.3305 8.41009 17.3305 8.89009 17.6205 9.18009L20.4405 12.0001L17.6205 14.8201C17.3305 15.1101 17.3305 15.5901 17.6205 15.8801C17.7605 16.0301 17.9605 16.1001 18.1505 16.1001Z" fill="#292D32"/>
</svg>
