<svg width="24" height="24" viewBox="0 0 24 24" fill="none" xmlns="http://www.w3.org/2000/svg">
<path d="M17.49 9.59965L5.6 16.7696C4.9 17.1896 4 16.6896 4 15.8696V7.86965C4 4.37965 7.77 2.19965 10.8 3.93965L15.39 6.57965L17.48 7.77965C18.17 8.18965 18.18 9.18965 17.49 9.59965Z" fill="#292D32"/>
<path d="M18.7685 15.9255L14.7185 18.2655L10.6785 20.5955C9.22852 21.4255 7.58852 21.2555 6.39852 20.4155C5.81852 20.0155 5.88852 19.1255 6.49852 18.7655L19.2085 11.1455C19.8085 10.7855 20.5985 11.1255 20.7085 11.8155C20.9585 13.3655 20.3185 15.0355 18.7685 15.9255Z" fill="#292D32"/>
</svg>
